<svg aria-hidden="true" style="position:absolute;width:0;height:0;overflow:hidden" xmlns="http://www.w3.org/2000/svg"><defs><symbol id="icon-check" viewBox="0 0 43 32"><path d="M40.503 1.584c-.416.012-.81.186-1.1.484L14.934 26.537 4.865 16.468a1.6 1.6 0 1 0-2.263 2.263l11.2 11.2a1.6 1.6 0 0 0 2.262 0l25.6-25.6a1.603 1.603 0 0 0 .358-1.771 1.598 1.598 0 0 0-1.521-.976z"/></symbol><symbol id="icon-calendar" viewBox="0 0 32 32"><path d="M23.407 4.444h5.926a1.478 1.478 0 0 1 1.481 1.482V29.63a1.478 1.478 0 0 1-1.481 1.481H2.666a1.482 1.482 0 0 1-1.482-1.481V5.926a1.482 1.482 0 0 1 1.482-1.482h5.926V1.481h2.963v2.963h8.889V1.481h2.963v2.963zm4.445 11.852H4.148v11.852h23.704V16.296zm-7.408-8.889h-8.889v2.963H8.592V7.407H4.148v5.926h23.704V7.407h-4.444v2.963h-2.963V7.407zM7.111 19.259h2.963v2.963H7.111v-2.963zm7.407 0h2.963v2.963h-2.963v-2.963zm7.408 0h2.963v2.963h-2.963v-2.963z"/></symbol><symbol id="icon-backward" viewBox="0 0 16 32"><path d="M0 16a2.312 2.312 0 0 1 .642-1.567L12.834 1.468c.36-.375.784-.579 1.301-.579 1.05 0 1.865.886 1.865 2.027 0 .545-.204 1.056-.564 1.448L4.466 16l10.97 11.636A2.1 2.1 0 0 1 16 29.084c0 1.142-.815 2.027-1.865 2.027-.501 0-.94-.204-1.301-.579L.642 17.55A2.108 2.108 0 0 1 0 16z"/></symbol><symbol id="icon-forward" viewBox="0 0 16 32"><path d="M16 16a2.309 2.309 0 0 0-.643-1.567L3.165 1.468c-.36-.375-.784-.579-1.301-.579-1.05 0-1.865.886-1.865 2.027 0 .545.204 1.056.564 1.448L11.533 16 .563 27.636a2.1 2.1 0 0 0-.564 1.448c0 1.142.815 2.027 1.865 2.027.501 0 .94-.204 1.301-.579L15.357 17.55c.439-.443.642-.954.642-1.55z"/></symbol><symbol id="icon-next" viewBox="0 0 19 32"><path d="M10.15 16 1.097 6.95l4.525-4.528L19.2 16 5.622 29.578 1.097 25.05 10.15 16z"/></symbol><symbol id="icon-prev" viewBox="0 0 19 32"><path d="m9.038 16 9.053-9.05-4.525-4.528L-.012 16l13.578 13.578 4.525-4.528L9.038 16z"/></symbol><symbol id="icon-heart" viewBox="0 0 32 32"><path d="M9.031 3.014c-2.077.125-3.994 1.092-5.427 2.524S1.205 8.885 1.08 10.962c-.125 2.077.632 4.298 2.503 6.184v.004l11.788 11.785a.885.885 0 0 0 1.256 0L28.415 17.15c3.205-3.204 3.205-8.428 0-11.632-3.204-3.205-8.428-3.205-11.632 0l-.785.785-.785-.785-.003-.003c-1.886-1.872-4.104-2.625-6.181-2.5zm.104 1.774c1.589-.096 3.255.431 4.826 1.99l1.41 1.41a.885.885 0 0 0 1.256 0l1.413-1.413a6.43 6.43 0 0 1 9.115 0h.004a6.43 6.43 0 0 1 0 9.115l-1.413 1.417-9.747 9.743-11.16-11.16c-1.556-1.57-2.082-3.232-1.986-4.819.096-1.589.853-3.121 2.007-4.274S7.546 4.886 9.134 4.79z"/></symbol><symbol id="icon-moon" viewBox="0 0 32 32"><path d="M14.72 1.48c-3.195.296-5.962 1.545-8.105 3.385a14.507 14.507 0 0 0-3.184 3.888C.437 14.061.791 21.212 5.79 26.21c8.637 8.637 23.605 3.233 24.73-8.931a1.263 1.263 0 0 0-2.01-1.129l.003-.002c-2.899 2.142-5.879 2.288-8.464 1.293s-4.722-3.211-5.612-5.832a8.446 8.446 0 0 1-.444-3.227c.095-1.6.65-3.259 1.859-4.895a1.263 1.263 0 0 0-1.136-2.005h.005zm-2.342 3.155c-.498 1.196-.837 2.401-.908 3.595a11.022 11.022 0 0 0 .572 4.191c1.142 3.364 3.794 6.105 7.102 7.378 2.55.982 5.486.641 8.339-.582-2.381 8.577-13.214 11.901-19.908 5.207C3.38 20.229 3.148 14.395 5.631 9.993a11.994 11.994 0 0 1 2.628-3.211c1.148-.985 2.574-1.656 4.118-2.148z"/></symbol><symbol id="icon-sun" viewBox="0 0 32 32"><path d="M16 .637c-.631 0-1.143.512-1.143 1.143v2.583a1.143 1.143 0 0 0 2.286 0V1.78c0-.631-.512-1.143-1.143-1.143zm10.06 4.161a1.14 1.14 0 0 0-.809.336L23.415 6.97a1.138 1.138 0 0 0 0 1.616 1.138 1.138 0 0 0 1.616 0l1.836-1.836a1.138 1.138 0 0 0 0-1.616 1.138 1.138 0 0 0-.806-.336zm-20.117.003H5.94a1.138 1.138 0 0 0-.807 1.949l1.836 1.836a1.138 1.138 0 0 0 1.616 0 1.138 1.138 0 0 0 0-1.616L6.749 5.134a1.14 1.14 0 0 0-.807-.333zM16 8.393c-1.87 0-3.755.618-5.202 1.905S8.393 13.56 8.393 16c0 2.441.957 4.415 2.405 5.702S14.13 23.607 16 23.607s3.758-.618 5.205-1.905S23.607 18.44 23.607 16c0-2.441-.954-4.415-2.402-5.702S17.87 8.393 16 8.393zm0 2.286c1.362 0 2.711.459 3.688 1.327s1.634 2.125 1.634 3.994c0 1.869-.657 3.126-1.634 3.994S17.363 21.321 16 21.321c-1.362 0-2.708-.459-3.685-1.327S10.678 17.869 10.678 16c0-1.869.66-3.126 1.637-3.994s2.322-1.327 3.685-1.327zM1.78 14.857a1.143 1.143 0 0 0 0 2.286h2.583a1.143 1.143 0 0 0 0-2.286zm25.857 0a1.143 1.143 0 0 0 0 2.286h2.583a1.143 1.143 0 0 0 0-2.286zM7.78 23.08h-.003c-.315 0-.6.127-.807.333l-1.836 1.836a1.138 1.138 0 0 0 0 1.616 1.138 1.138 0 0 0 1.616 0l1.836-1.836a1.138 1.138 0 0 0 0-1.616 1.14 1.14 0 0 0-.807-.333zm16.443 0c-.315.001-.6.129-.806.336a1.138 1.138 0 0 0 0 1.616l1.836 1.836a1.138 1.138 0 0 0 1.616 0 1.138 1.138 0 0 0 0-1.616l-1.836-1.836a1.137 1.137 0 0 0-.809-.336zM16 26.494c-.631 0-1.143.512-1.143 1.143v2.583a1.143 1.143 0 0 0 2.286 0v-2.583c0-.631-.512-1.143-1.143-1.143z"/></symbol><symbol id="icon-favorite" viewBox="0 0 37 32"><path d="M10.67 1.143c-4.819 0-8.768 3.897-8.768 8.688 0 3.665 1.623 12.157 15.004 20.384l.003.002.006.003c.841.511 1.9.511 2.741 0l.015-.008-.006.003c13.382-8.227 15.004-16.719 15.004-20.384 0-4.791-3.949-8.688-8.768-8.688-4.066 0-6.587 2.8-7.616 4.063-1.029-1.262-3.55-4.063-7.616-4.063zm0 2.286c3.378 0 6.701 4.112 6.701 4.112a1.144 1.144 0 0 0 1.828.003l.002-.003s3.323-4.112 6.701-4.112c3.597 0 6.482 2.859 6.482 6.402 0 3.059-1.049 10.524-13.911 18.433a.357.357 0 0 1-.375 0C5.236 20.355 4.187 12.89 4.187 9.831c0-3.543 2.885-6.402 6.482-6.402z"/></symbol><symbol id="icon-home" viewBox="0 0 32 32"><path d="m15.455 1.965-12 9.333a.887.887 0 0 0-.344.701v14.667a3.57 3.57 0 0 0 3.556 3.556h18.667a3.57 3.57 0 0 0 3.556-3.556V11.999a.888.888 0 0 0-.342-.7l-.002-.001-12-9.333a.887.887 0 0 0-1.092.001l.002-.001zM16 3.792l2.951 2.299 8.16 6.344v14.233c0 .992-.785 1.778-1.778 1.778H6.666a1.765 1.765 0 0 1-1.778-1.778V12.435z"/><path d="M12 15.111a.889.889 0 0 0-.889.889v13.333a.889.889 0 1 0 1.778 0V16.889h6.222v12.444a.889.889 0 1 0 1.778 0V16a.889.889 0 0 0-.889-.889z"/></symbol><symbol id="icon-book-open" viewBox="0 0 32 32"><path d="M2.667 3.111A.889.889 0 0 0 1.778 4v20c0 .491.398.889.889.889H12A3.097 3.097 0 0 1 15.111 28a.888.888 0 0 0 1.778 0v-.001A3.097 3.097 0 0 1 20 24.888h9.333a.889.889 0 0 0 .889-.889v-20a.889.889 0 0 0-.889-.889h-8c-2.314 0-4.261 1.332-5.333 3.215-1.072-1.884-3.019-3.215-5.333-3.215zm.889 1.778h7.111a4.43 4.43 0 0 1 4.444 4.444v15.073c-.857-.737-1.899-1.295-3.111-1.295H3.556zm17.777 0h7.111v18.222H20c-1.212 0-2.255.558-3.111 1.295V9.333a4.43 4.43 0 0 1 4.444-4.444z"/></symbol><symbol id="icon-down" viewBox="0 0 32 32"><path d="M3.76 6.857 0 10.336l16 14.807 16-14.807-3.76-3.479L16 18.16 3.76 6.857z"/></symbol><symbol id="icon-favorite-filled" viewBox="0 0 32 32"><path d="M8.382 2.286C4.174 2.286.761 5.662.761 9.829c0 3.362 1.335 11.344 14.459 19.413a1.494 1.494 0 0 0 1.565-.004l-.006.004c13.125-8.069 14.459-16.05 14.459-19.413 0-4.167-3.413-7.543-7.621-7.543-4.206 0-7.618 4.571-7.618 4.571s-3.413-4.571-7.618-4.571z"/></symbol><symbol id="icon-search" viewBox="0 0 32 32"><path d="M13.803 25.882c2.786 0 5.489-.885 7.682-2.515l6.897 6.551 2.217-2.108-6.897-6.551a11.41 11.41 0 0 0 2.65-7.296v-.002c0-6.573-5.628-11.923-12.55-11.923-6.92 0-12.548 5.35-12.548 11.923s5.628 11.921 12.548 11.921zm0-20.862c5.192 0 9.412 4.009 9.412 8.941s-4.22 8.941-9.412 8.941c-5.19 0-9.412-4.009-9.412-8.941S8.613 5.02 13.803 5.02z"/></symbol><symbol id="icon-up" viewBox="0 0 32 32"><path d="M3.76 25.143 0 21.664 16 6.857l16 14.807-3.76 3.479L16 13.84 3.76 25.143z"/></symbol></defs></svg>